<svg width="100" height="100" viewBox="0 0 100 100" fill="none" xmlns="http://www.w3.org/2000/svg">
<circle cx="47.9166" cy="52.0833" r="31.25" fill="white"/>
<path d="M50 8.33333C27.025 8.33333 8.33337 27.025 8.33337 50C8.33337 72.975 27.025 91.6667 50 91.6667C72.975 91.6667 91.6667 72.975 91.6667 50C91.6667 27.025 72.975 8.33333 50 8.33333ZM41.6709 68.3875L29.1478 55.8914C27.5196 54.2667 27.5163 51.63 29.1404 50.0013V50.0013C30.7655 48.3716 33.4043 48.3686 35.0331 49.9946L41.6625 56.6125L60.775 37.5C62.402 35.8731 65.0398 35.8731 66.6667 37.5V37.5C68.2937 39.1269 68.2937 41.7647 66.6667 43.3917L41.6709 68.3875Z" fill="#2FAB73"/>
</svg>
