<svg width="510" height="416" viewBox="0 0 510 416" fill="none" xmlns="http://www.w3.org/2000/svg">
<path d="M381.172 294.036L341.45 270.718L310.249 317.15C328.477 332.362 359.1 343.425 374.924 340.047C407.398 333.114 473.021 240.911 482.127 233.891C513.125 209.994 523.201 200.925 484.413 219.494C447.432 237.198 467.019 219.494 457.959 219.494C447.074 220.254 450.681 229.915 454.721 236.837L381.172 294.036Z" fill="url(#paint0_linear_11_45)"/>
<path d="M155.79 258.711C166.997 250.929 211.279 236.911 230.727 230.874L251.302 233.119C264.266 236.333 292.073 241.812 304.863 246.998C317.654 252.183 340.866 268.72 362.521 282.51L357.408 300.218C352.816 316.121 340.673 328.733 324.955 333.924C320.91 359.646 317.422 401.463 317.998 414.427L167.512 414.31L160.623 350.662L129.634 353.982L103.457 333.924C136.234 277.23 141.782 268.439 155.79 258.711Z" fill="url(#paint1_linear_11_45)"/>
<path d="M112.739 404.965C65.0583 398.92 96.0694 350.595 104.523 334.636C114.748 343.243 127.374 348.494 140.687 349.677L157.118 351.136L150.39 366.658L223.029 383.664L233.22 411.935C225.961 410.699 172.032 412.484 112.739 404.965Z" fill="url(#paint2_linear_11_45)"/>
<path d="M235.798 104C238.145 99.7566 244.875 93.8154 253.022 104H235.798Z" fill="#30235B"/>
<ellipse cx="239.71" cy="249.383" rx="25.9725" ry="18.5082" fill="#CF0606"/>
<path d="M218.429 248.388L222.059 212.239H257.404L261.464 248.388C260.045 252.645 253.345 261.281 240.939 261.281C225.126 261.281 219.442 252.645 218.429 248.388Z" fill="url(#paint3_linear_11_45)"/>
<mask id="mask0_11_45" style="mask-type:alpha" maskUnits="userSpaceOnUse" x="218" y="212" width="44" height="50">
<path d="M218.429 248.388L222.059 212.239H257.404L261.472 248.461C260.053 252.718 253.33 261.282 240.923 261.282C225.111 261.282 219.442 252.645 218.429 248.388Z" fill="url(#paint4_linear_11_45)"/>
</mask>
<g mask="url(#mask0_11_45)">
<path opacity="0.1" d="M270.142 213.623C238.183 253.165 220.324 221.371 211.099 216.602L217.438 189.87L255.28 185.351L270.142 213.623Z" fill="black"/>
</g>
<path d="M239.097 226.751C200.98 226.751 194.425 172.036 206.202 147.01C232.7 114.623 265.824 133.515 279.073 147.01C282.263 167.865 285.78 226.751 239.097 226.751Z" fill="url(#paint5_linear_11_45)"/>
<path d="M279.724 184.893L272.256 179.392L273.411 175.296L281.941 180.921L279.724 184.893Z" fill="#111111"/>
<path d="M201.919 183.298L209.387 177.796L208.232 173.701L199.702 179.325L201.919 183.298Z" fill="#111111"/>
<path d="M208.753 150.298C235.777 167.905 265.735 157.634 277.336 150.298C274.893 158.002 278.354 172.811 280.389 179.252C297.973 156.354 292.224 143.989 287.152 140.668C286.307 129.256 275.932 100.722 241.103 102.074C206.274 103.427 199.515 128.129 200.502 137.287C187.314 155.209 195.16 172.731 201.521 179.252C208.753 165.212 208.588 155.363 208.753 150.298Z" fill="#30235B"/>
<g filter="url(#filter0_d_11_45)">
<path d="M243.871 119.695C203.528 118.344 194.542 144.876 193.336 160.282C193.239 161.516 192.23 162.487 190.993 162.487C189.672 162.487 188.62 161.386 188.738 160.071C190.498 140.317 201.03 105.799 243.871 108.179C287.127 110.582 295.589 145.017 294.262 164.213C294.191 165.24 293.323 166.016 292.293 166.016C291.17 166.016 290.269 165.105 290.224 163.983C289.588 148.056 279 120.713 243.871 119.695Z" fill="white"/>
</g>
<g filter="url(#filter1_d_11_45)">
<rect x="295.069" y="172.316" width="5.4757" height="21.0131" rx="2.73785" transform="rotate(10.0542 295.069 172.316)" fill="#24C28A"/>
</g>
<g filter="url(#filter2_d_11_45)">
<rect x="283.305" y="158.693" width="16.8668" height="43.7733" rx="8.43338" transform="rotate(10.0542 283.305 158.693)" fill="white"/>
</g>
<g filter="url(#filter3_d_11_45)">
<rect width="5.4757" height="21.0131" rx="2.73785" transform="matrix(-0.984643 0.17458 0.17458 0.984643 186.159 172.316)" fill="#24C28A"/>
</g>
<g filter="url(#filter4_d_11_45)">
<rect width="16.8668" height="43.7733" rx="8.43338" transform="matrix(-0.984643 0.17458 0.17458 0.984643 197.77 158.693)" fill="white"/>
</g>
<mask id="mask1_11_45" style="mask-type:alpha" maskUnits="userSpaceOnUse" x="182" y="160" width="23" height="44">
<rect width="16.8668" height="43.7733" rx="8.43338" transform="matrix(-0.984643 0.17458 0.17458 0.984643 197.77 158.693)" fill="white"/>
</mask>
<g mask="url(#mask1_11_45)">
<rect x="189.828" y="158.693" width="21.9399" height="47.5168" transform="rotate(-10.0977 189.828 158.693)" fill="#E8E8E8"/>
</g>
<mask id="mask2_11_45" style="mask-type:alpha" maskUnits="userSpaceOnUse" x="277" y="160" width="22" height="44">
<rect x="283.305" y="158.693" width="16.8668" height="43.7733" rx="8.43338" transform="rotate(10.0542 283.305 158.693)" fill="white"/>
</mask>
<g mask="url(#mask2_11_45)">
<rect width="21.9399" height="47.5168" transform="matrix(-0.98451 -0.175326 -0.175326 0.98451 292.271 158.693)" fill="#E8E8E8"/>
</g>
<path opacity="0.5" d="M222.672 191.284C217.28 191.284 214.564 187.034 213.874 185.137C213.08 183.55 212.454 179.415 214.333 176.13C216.722 171.954 227.951 170.789 231.885 176.689C235.818 182.589 231.885 191.284 222.672 191.284Z" fill="#E6FCFF"/>
<path opacity="0.5" d="M258.403 191.284C263.796 191.284 266.511 187.034 267.201 185.137C267.995 183.55 268.622 179.415 266.743 176.13C264.354 171.954 253.124 170.789 249.191 176.689C245.257 182.589 249.191 191.284 258.403 191.284Z" fill="#E6FCFF"/>
<path fill-rule="evenodd" clip-rule="evenodd" d="M234.67 175.387C225.876 167.664 217.932 170.932 213.225 172.868C212.702 173.083 212.218 173.282 211.778 173.448L208.831 173.453C208.276 173.454 207.828 173.907 207.833 174.462L207.855 176.94C207.86 177.489 208.306 177.931 208.855 177.931L210.986 177.931C209.442 191.182 219.214 194.728 227.029 192.339C233.997 190.21 235.862 184.185 236.235 180.405C237.725 177.102 244.26 178.628 244.518 180.331C244.524 180.371 244.531 180.416 244.538 180.465L244.538 180.465C244.845 182.539 246.39 192.987 258.153 193.002C267.788 193.014 270.401 184.407 270.504 180.101L272.998 180.079C273.55 180.074 273.994 179.622 273.989 179.07L273.962 176.039C273.957 175.487 273.505 175.043 272.953 175.048L270.459 175.07C264.183 168.712 250.701 169.307 245.952 175.287C240.713 174.079 236.248 174.851 234.67 175.387ZM222.672 191.284C217.28 191.284 214.564 187.034 213.874 185.137C213.081 183.55 212.454 179.415 214.333 176.13C216.722 171.954 227.951 170.789 231.885 176.689C235.818 182.589 231.885 191.284 222.672 191.284ZM267.202 185.137C266.512 187.034 263.797 191.284 258.404 191.284C249.192 191.284 245.259 182.589 249.192 176.689C253.125 170.789 264.355 171.954 266.744 176.13C268.623 179.415 267.996 183.55 267.202 185.137Z" fill="#111111"/>
<path d="M164.324 409.064C164.324 408.509 164.774 408.06 165.329 408.06H319.721C320.692 408.06 321.479 408.847 321.479 409.818C321.479 412.73 319.118 415.092 316.205 415.092H170.352C167.023 415.092 164.324 412.393 164.324 409.064Z" fill="#B4B4B4"/>
<rect x="164.324" y="305.524" width="157.155" height="105.147" rx="2.94666" fill="url(#paint6_linear_11_45)"/>
<circle cx="242.901" cy="358.098" r="11.1765" fill="white"/>
<path fill-rule="evenodd" clip-rule="evenodd" d="M131.238 170.252C131.438 166.844 132.117 163.99 132.684 162.404C133.796 165.186 134.346 167.857 134.532 170.292C136.968 170.478 139.639 171.028 142.42 172.141C140.834 172.708 137.981 173.387 134.572 173.586C134.382 177.205 133.452 180.017 132.684 181.457C131.749 178.84 131.322 176.149 131.211 173.613C128.676 173.502 125.984 173.076 123.367 172.141C124.808 171.373 127.619 170.442 131.238 170.252Z" fill="url(#paint7_linear_11_45)"/>
<path fill-rule="evenodd" clip-rule="evenodd" d="M104.351 147.826C104.483 145.557 104.936 143.657 105.313 142.602C106.053 144.453 106.419 146.231 106.543 147.852C108.164 147.976 109.942 148.342 111.794 149.083C110.738 149.46 108.839 149.912 106.57 150.045C106.443 152.454 105.824 154.325 105.313 155.284C104.691 153.542 104.407 151.75 104.333 150.063C102.645 149.989 100.853 149.705 99.1115 149.083C100.07 148.572 101.942 147.952 104.351 147.826Z" fill="url(#paint8_linear_11_45)"/>
<path fill-rule="evenodd" clip-rule="evenodd" d="M61.0274 131.848C61.2267 128.439 61.9063 125.586 62.4727 124C63.5855 126.782 64.1355 129.452 64.3215 131.888C66.7571 132.074 69.4278 132.624 72.2097 133.737C70.6237 134.303 67.7702 134.983 64.3616 135.182C64.1715 138.801 63.2408 141.613 62.4727 143.053C61.5382 140.436 61.1117 137.744 61.0004 135.209C58.4652 135.098 55.7735 134.671 53.1566 133.737C54.5968 132.969 57.4085 132.038 61.0274 131.848Z" fill="url(#paint9_linear_11_45)"/>
<path fill-rule="evenodd" clip-rule="evenodd" d="M64.7364 210.189C65.0296 205.174 66.0295 200.976 66.8628 198.642C68.5 202.735 69.3092 206.664 69.5828 210.248C73.1661 210.521 77.0954 211.331 81.1881 212.968C78.8547 213.801 74.6567 214.801 69.6417 215.094C69.362 220.418 67.9928 224.555 66.8628 226.674C65.4878 222.824 64.8604 218.864 64.6967 215.134C60.9668 214.97 57.0066 214.343 53.1566 212.968C55.2754 211.838 59.4122 210.468 64.7364 210.189Z" fill="url(#paint10_linear_11_45)"/>
<circle cx="95.2053" cy="180.534" r="1.8414" fill="#2F235A"/>
<circle cx="137.463" cy="127.737" r="1.8414" fill="#FE9076"/>
<circle cx="44.8435" cy="173.224" r="1.8414" fill="#FFA400"/>
<circle cx="127.37" cy="208.934" r="1.8414" fill="#23BB86"/>
<path d="M132.951 120.052C128.788 114.334 117.061 102.121 103.457 99.0115" stroke="#FE9076" stroke-width="1.60277" stroke-linecap="round"/>
<path d="M37.0741 168.288C30.921 164.801 15.1963 158.522 1.52302 161.309" stroke="#FFA400" stroke-width="1.60277" stroke-linecap="round"/>
<path d="M121.05 214.283C117.897 217.065 110.311 224.967 105.192 234.314" stroke="#23BB86" stroke-width="1.60277" stroke-linecap="round"/>
<path fill-rule="evenodd" clip-rule="evenodd" d="M348.588 170.252C348.389 166.844 347.709 163.99 347.143 162.404C346.03 165.186 345.48 167.857 345.294 170.292C342.858 170.478 340.187 171.028 337.406 172.141C338.992 172.708 341.845 173.387 345.254 173.586C345.444 177.205 346.374 180.017 347.143 181.457C348.077 178.84 348.504 176.149 348.615 173.613C351.15 173.502 353.842 173.076 356.459 172.141C355.019 171.373 352.207 170.442 348.588 170.252Z" fill="url(#paint11_linear_11_45)"/>
<path fill-rule="evenodd" clip-rule="evenodd" d="M375.476 147.826C375.343 145.557 374.891 143.657 374.514 142.602C373.773 144.453 373.407 146.231 373.283 147.852C371.662 147.976 369.884 148.342 368.032 149.083C369.088 149.46 370.987 149.912 373.256 150.045C373.383 152.454 374.002 154.325 374.514 155.284C375.136 153.542 375.419 151.75 375.494 150.063C377.181 149.989 378.973 149.705 380.715 149.083C379.756 148.572 377.884 147.952 375.476 147.826Z" fill="url(#paint12_linear_11_45)"/>
<path fill-rule="evenodd" clip-rule="evenodd" d="M418.799 131.848C418.599 128.439 417.92 125.586 417.353 124C416.241 126.782 415.691 129.452 415.505 131.888C413.069 132.074 410.398 132.624 407.616 133.737C409.202 134.303 412.056 134.983 415.465 135.182C415.655 138.801 416.585 141.613 417.353 143.053C418.288 140.436 418.714 137.744 418.826 135.209C421.361 135.098 424.053 134.671 426.669 133.737C425.229 132.969 422.418 132.038 418.799 131.848Z" fill="url(#paint13_linear_11_45)"/>
<path fill-rule="evenodd" clip-rule="evenodd" d="M415.09 210.189C414.796 205.174 413.797 200.976 412.963 198.642C411.326 202.735 410.517 206.664 410.243 210.248C406.66 210.521 402.731 211.331 398.638 212.968C400.971 213.801 405.169 214.801 410.184 215.094C410.464 220.418 411.833 224.555 412.963 226.674C414.338 222.824 414.966 218.864 415.129 215.134C418.859 214.97 422.819 214.343 426.669 212.968C424.551 211.838 420.414 210.468 415.09 210.189Z" fill="url(#paint14_linear_11_45)"/>
<circle cx="1.8414" cy="1.8414" r="1.8414" transform="matrix(-1 0 0 1 386.462 178.693)" fill="#2F235A"/>
<circle cx="1.8414" cy="1.8414" r="1.8414" transform="matrix(-1 0 0 1 344.204 125.895)" fill="#FE9076"/>
<circle cx="1.8414" cy="1.8414" r="1.8414" transform="matrix(-1 0 0 1 436.824 171.382)" fill="#FFA400"/>
<circle cx="1.8414" cy="1.8414" r="1.8414" transform="matrix(-1 0 0 1 354.298 207.093)" fill="#23BB86"/>
<path d="M346.875 120.052C351.038 114.334 362.765 102.121 376.369 99.0115" stroke="#FE9076" stroke-width="1.60277" stroke-linecap="round"/>
<path d="M442.752 168.288C448.905 164.801 464.63 158.522 478.303 161.309" stroke="#FFA400" stroke-width="1.60277" stroke-linecap="round"/>
<path d="M358.776 214.283C361.929 217.065 369.515 224.967 374.634 234.314" stroke="#23BB86" stroke-width="1.60277" stroke-linecap="round"/>
<path d="M269.949 56.5506C267.861 53.3253 263.635 55.0823 263.635 58.5958C263.635 61.2342 269.429 65.3613 269.949 65.8979C270.473 65.3613 275.979 61.2342 275.979 58.5958C275.979 55.109 272.041 53.3253 269.949 56.5506Z" fill="#FFBCBC"/>
<circle cx="269.807" cy="60.3757" r="13.7999" stroke="#F7F7F7" stroke-width="0.649684"/>
<path d="M220.426 37.3174C218.578 34.4628 214.838 36.0179 214.838 39.1275C214.838 41.4626 219.966 45.1153 220.426 45.5902C220.89 45.1153 225.763 41.4626 225.763 39.1275C225.763 36.0415 222.278 34.4628 220.426 37.3174Z" fill="#FFBCBC"/>
<circle cx="220.3" cy="40.7028" r="12.2135" stroke="#F7F7F7" stroke-width="0.574998"/>
<path d="M253.109 16.3424C251.845 14.39 249.286 15.4536 249.286 17.5803C249.286 19.1774 252.794 21.6755 253.109 22.0004C253.426 21.6755 256.758 19.1774 256.758 17.5803C256.758 15.4697 254.375 14.39 253.109 16.3424Z" fill="#FFBCBC"/>
<circle cx="253.022" cy="18.6577" r="8.35318" stroke="#F7F7F7" stroke-width="0.393259"/>
<path d="M195.379 5.47825C194.345 3.88077 192.252 4.75102 192.252 6.49121C192.252 7.79795 195.121 9.84206 195.379 10.1078C195.638 9.84206 198.365 7.79795 198.365 6.49121C198.365 4.76422 196.415 3.88077 195.379 5.47825Z" fill="#FFBCBC"/>
<circle cx="195.308" cy="7.37273" r="6.83488" stroke="#F7F7F7" stroke-width="0.321779"/>
<path d="M190.292 80.3643C188.034 76.8765 183.464 78.7765 183.464 82.5759C183.464 85.4289 189.729 89.8918 190.292 90.4721C190.859 89.8918 196.813 85.4289 196.813 82.5759C196.813 78.8053 192.554 76.8765 190.292 80.3643Z" fill="#FFBCBC"/>
<circle cx="190.138" cy="84.5004" r="14.9226" stroke="#F7F7F7" stroke-width="0.702541"/>
<defs>
<filter id="filter0_d_11_45" x="154.729" y="78.0618" width="173.661" height="125.955" filterUnits="userSpaceOnUse" color-interpolation-filters="sRGB">
<feFlood flood-opacity="0" result="BackgroundImageFix"/>
<feColorMatrix in="SourceAlpha" type="matrix" values="0 0 0 0 0 0 0 0 0 0 0 0 0 0 0 0 0 0 127 0" result="hardAlpha"/>
<feOffset dy="4"/>
<feGaussianBlur stdDeviation="17"/>
<feColorMatrix type="matrix" values="0 0 0 0 0.0386285 0 0 0 0 0.0648437 0 0 0 0 0.104167 0 0 0 0.13 0"/>
<feBlend mode="normal" in2="BackgroundImageFix" result="effect1_dropShadow_11_45"/>
<feBlend mode="normal" in="SourceGraphic" in2="effect1_dropShadow_11_45" result="shape"/>
</filter>
<filter id="filter1_d_11_45" x="257.836" y="142.751" width="76.1891" height="88.7754" filterUnits="userSpaceOnUse" color-interpolation-filters="sRGB">
<feFlood flood-opacity="0" result="BackgroundImageFix"/>
<feColorMatrix in="SourceAlpha" type="matrix" values="0 0 0 0 0 0 0 0 0 0 0 0 0 0 0 0 0 0 127 0" result="hardAlpha"/>
<feOffset dy="4"/>
<feGaussianBlur stdDeviation="17"/>
<feColorMatrix type="matrix" values="0 0 0 0 0.0386285 0 0 0 0 0.0648437 0 0 0 0 0.104167 0 0 0 0.13 0"/>
<feBlend mode="normal" in2="BackgroundImageFix" result="effect1_dropShadow_11_45"/>
<feBlend mode="normal" in="SourceGraphic" in2="effect1_dropShadow_11_45" result="shape"/>
</filter>
<filter id="filter2_d_11_45" x="243.005" y="130.034" width="89.5669" height="111.363" filterUnits="userSpaceOnUse" color-interpolation-filters="sRGB">
<feFlood flood-opacity="0" result="BackgroundImageFix"/>
<feColorMatrix in="SourceAlpha" type="matrix" values="0 0 0 0 0 0 0 0 0 0 0 0 0 0 0 0 0 0 127 0" result="hardAlpha"/>
<feOffset dy="4"/>
<feGaussianBlur stdDeviation="17"/>
<feColorMatrix type="matrix" values="0 0 0 0 0.0386285 0 0 0 0 0.0648437 0 0 0 0 0.104167 0 0 0 0.13 0"/>
<feBlend mode="normal" in2="BackgroundImageFix" result="effect1_dropShadow_11_45"/>
<feBlend mode="normal" in="SourceGraphic" in2="effect1_dropShadow_11_45" result="shape"/>
</filter>
<filter id="filter3_d_11_45" x="147.203" y="142.751" width="76.1891" height="88.7754" filterUnits="userSpaceOnUse" color-interpolation-filters="sRGB">
<feFlood flood-opacity="0" result="BackgroundImageFix"/>
<feColorMatrix in="SourceAlpha" type="matrix" values="0 0 0 0 0 0 0 0 0 0 0 0 0 0 0 0 0 0 127 0" result="hardAlpha"/>
<feOffset dy="4"/>
<feGaussianBlur stdDeviation="17"/>
<feColorMatrix type="matrix" values="0 0 0 0 0.0386285 0 0 0 0 0.0648437 0 0 0 0 0.104167 0 0 0 0.13 0"/>
<feBlend mode="normal" in2="BackgroundImageFix" result="effect1_dropShadow_11_45"/>
<feBlend mode="normal" in="SourceGraphic" in2="effect1_dropShadow_11_45" result="shape"/>
</filter>
<filter id="filter4_d_11_45" x="148.504" y="130.034" width="89.5669" height="111.363" filterUnits="userSpaceOnUse" color-interpolation-filters="sRGB">
<feFlood flood-opacity="0" result="BackgroundImageFix"/>
<feColorMatrix in="SourceAlpha" type="matrix" values="0 0 0 0 0 0 0 0 0 0 0 0 0 0 0 0 0 0 127 0" result="hardAlpha"/>
<feOffset dy="4"/>
<feGaussianBlur stdDeviation="17"/>
<feColorMatrix type="matrix" values="0 0 0 0 0.0386285 0 0 0 0 0.0648437 0 0 0 0 0.104167 0 0 0 0.13 0"/>
<feBlend mode="normal" in2="BackgroundImageFix" result="effect1_dropShadow_11_45"/>
<feBlend mode="normal" in="SourceGraphic" in2="effect1_dropShadow_11_45" result="shape"/>
</filter>
<linearGradient id="paint0_linear_11_45" x1="391.304" y1="158.698" x2="393.951" y2="334.566" gradientUnits="userSpaceOnUse">
<stop stop-color="#FFEFE0"/>
<stop offset="1" stop-color="#FFBE99"/>
</linearGradient>
<linearGradient id="paint1_linear_11_45" x1="242.798" y1="200.585" x2="230.398" y2="448.923" gradientUnits="userSpaceOnUse">
<stop stop-color="#FF9F81"/>
<stop offset="1" stop-color="#F53838"/>
</linearGradient>
<linearGradient id="paint2_linear_11_45" x1="227.733" y1="287.86" x2="109.061" y2="344.735" gradientUnits="userSpaceOnUse">
<stop offset="0.0677966" stop-color="#FFEFE0"/>
<stop offset="1" stop-color="#FFBE99"/>
</linearGradient>
<linearGradient id="paint3_linear_11_45" x1="238.727" y1="173.352" x2="240.807" y2="239.738" gradientUnits="userSpaceOnUse">
<stop stop-color="#FFEFE0"/>
<stop offset="1" stop-color="#FFBE99"/>
</linearGradient>
<linearGradient id="paint4_linear_11_45" x1="238.727" y1="173.352" x2="235.813" y2="248.983" gradientUnits="userSpaceOnUse">
<stop stop-color="#FFEFE0"/>
<stop offset="1" stop-color="#FFBE99"/>
</linearGradient>
<linearGradient id="paint5_linear_11_45" x1="242.184" y1="137.96" x2="242.184" y2="217.679" gradientUnits="userSpaceOnUse">
<stop stop-color="#FFEFE0"/>
<stop offset="1" stop-color="#FFBE99"/>
</linearGradient>
<linearGradient id="paint6_linear_11_45" x1="275.352" y1="226.611" x2="217.247" y2="435.106" gradientUnits="userSpaceOnUse">
<stop offset="0.0171777" stop-color="white"/>
<stop offset="1" stop-color="#D7D7D7"/>
</linearGradient>
<linearGradient id="paint7_linear_11_45" x1="132.894" y1="164.432" x2="132.894" y2="182.322" gradientUnits="userSpaceOnUse">
<stop stop-color="#FFE89E"/>
<stop offset="1" stop-color="#FFBF1A"/>
</linearGradient>
<linearGradient id="paint8_linear_11_45" x1="105.453" y1="143.952" x2="105.453" y2="155.859" gradientUnits="userSpaceOnUse">
<stop stop-color="#FFE89E"/>
<stop offset="1" stop-color="#FFBF1A"/>
</linearGradient>
<linearGradient id="paint9_linear_11_45" x1="62.6831" y1="126.028" x2="62.6831" y2="143.917" gradientUnits="userSpaceOnUse">
<stop stop-color="#FFE89E"/>
<stop offset="1" stop-color="#FFBF1A"/>
</linearGradient>
<linearGradient id="paint10_linear_11_45" x1="67.1724" y1="201.626" x2="67.1724" y2="227.946" gradientUnits="userSpaceOnUse">
<stop stop-color="#FFE89E"/>
<stop offset="1" stop-color="#FFBF1A"/>
</linearGradient>
<linearGradient id="paint11_linear_11_45" x1="346.932" y1="164.432" x2="346.932" y2="182.322" gradientUnits="userSpaceOnUse">
<stop stop-color="#FFE89E"/>
<stop offset="1" stop-color="#FFBF1A"/>
</linearGradient>
<linearGradient id="paint12_linear_11_45" x1="374.373" y1="143.952" x2="374.373" y2="155.859" gradientUnits="userSpaceOnUse">
<stop stop-color="#FFE89E"/>
<stop offset="1" stop-color="#FFBF1A"/>
</linearGradient>
<linearGradient id="paint13_linear_11_45" x1="417.143" y1="126.028" x2="417.143" y2="143.917" gradientUnits="userSpaceOnUse">
<stop stop-color="#FFE89E"/>
<stop offset="1" stop-color="#FFBF1A"/>
</linearGradient>
<linearGradient id="paint14_linear_11_45" x1="412.654" y1="201.626" x2="412.654" y2="227.946" gradientUnits="userSpaceOnUse">
<stop stop-color="#FFE89E"/>
<stop offset="1" stop-color="#FFBF1A"/>
</linearGradient>
</defs>
</svg>
